<svg xmlns="http://www.w3.org/2000/svg" xmlns:xlink="http://www.w3.org/1999/xlink" viewBox="0 0 432 480"><defs><style>.cls-1{mask:url(#mask);filter:url(#luminosity-noclip-10);}.cls-10,.cls-12,.cls-14,.cls-16,.cls-18,.cls-2,.cls-25,.cls-32,.cls-35,.cls-4,.cls-6,.cls-8{mix-blend-mode:multiply;}.cls-2{fill:url(#radial-gradient);}.cls-3{mask:url(#mask-2);filter:url(#luminosity-noclip-15);}.cls-4{fill:url(#linear-gradient);}.cls-5{mask:url(#mask-3);filter:url(#luminosity-noclip-16);}.cls-6{fill:url(#linear-gradient-2);}.cls-7{mask:url(#mask-4);filter:url(#luminosity-noclip-17);}.cls-8{fill:url(#linear-gradient-3);}.cls-9{mask:url(#mask-5);filter:url(#luminosity-noclip-18);}.cls-10{fill:url(#linear-gradient-4);}.cls-11{mask:url(#mask-6);filter:url(#luminosity-noclip-11);}.cls-12{fill:url(#linear-gradient-5);}.cls-13{mask:url(#mask-7);filter:url(#luminosity-noclip-12);}.cls-14{fill:url(#linear-gradient-6);}.cls-15{mask:url(#mask-8);filter:url(#luminosity-noclip-13);}.cls-16{fill:url(#linear-gradient-7);}.cls-17{mask:url(#mask-9);filter:url(#luminosity-noclip-14);}.cls-18{fill:url(#linear-gradient-8);}.cls-19{isolation:isolate;}.cls-20{fill:url(#linear-gradient-9);}.cls-21,.cls-23,.cls-26,.cls-29,.cls-31,.cls-52{fill:#fff;}.cls-21,.cls-23,.cls-28,.cls-31,.cls-34,.cls-37,.cls-39,.cls-41,.cls-43,.cls-45,.cls-47,.cls-49,.cls-52{mix-blend-mode:overlay;}.cls-21{opacity:0.49;}.cls-22{fill:#ffef57;}.cls-23{opacity:0.35;}.cls-24{fill:url(#linear-gradient-10);}.cls-25{fill:#e57d00;opacity:0.44;}.cls-27{mask:url(#mask-10);}.cls-28{fill:url(#radial-gradient-2);}.cls-29{opacity:0.7;}.cls-30{stroke:#00164c;stroke-miterlimit:10;fill:url(#linear-gradient-11);}.cls-31{opacity:0.52;}.cls-32{opacity:0.23;}.cls-33{mask:url(#mask-11);}.cls-34{fill:url(#linear-gradient-12);}.cls-35{opacity:0.36;}.cls-36{mask:url(#mask-12);}.cls-37,.cls-49{opacity:0.4;}.cls-37{fill:url(#linear-gradient-13);}.cls-38{mask:url(#mask-13);}.cls-39{fill:url(#linear-gradient-14);}.cls-40{mask:url(#mask-14);}.cls-41{fill:url(#linear-gradient-15);}.cls-42{mask:url(#mask-15);}.cls-43{opacity:0.25;fill:url(#linear-gradient-16);}.cls-44{mask:url(#mask-16);}.cls-45{fill:url(#linear-gradient-17);}.cls-46{mask:url(#mask-17);}.cls-47{opacity:0.53;fill:url(#linear-gradient-18);}.cls-48{mask:url(#mask-18);}.cls-49{fill:url(#linear-gradient-19);}.cls-50{fill:url(#linear-gradient-20);}.cls-51,.cls-55{fill:#fff92a;}.cls-52{opacity:0.61;}.cls-53{fill:url(#linear-gradient-21);}.cls-54{fill:url(#linear-gradient-22);}.cls-55{opacity:0.64;}.cls-56{fill:url(#linear-gradient-23);}.cls-57{filter:url(#luminosity-noclip-9);}.cls-58{filter:url(#luminosity-noclip-8);}.cls-59{filter:url(#luminosity-noclip-7);}.cls-60{filter:url(#luminosity-noclip-6);}.cls-61{filter:url(#luminosity-noclip-5);}.cls-62{filter:url(#luminosity-noclip-4);}.cls-63{filter:url(#luminosity-noclip-3);}.cls-64{filter:url(#luminosity-noclip-2);}.cls-65{filter:url(#luminosity-noclip);}</style><filter id="luminosity-noclip" x="131.75" y="-8613" width="60.01" height="32766" filterUnits="userSpaceOnUse" color-interpolation-filters="sRGB"><feFlood flood-color="#fff" result="bg"/><feBlend in="SourceGraphic" in2="bg"/></filter><mask id="mask" x="131.75" y="-8613" width="60.01" height="32766" maskUnits="userSpaceOnUse"><g class="cls-65"/></mask><radialGradient id="radial-gradient" cx="161.75" cy="86.48" r="28.99" gradientUnits="userSpaceOnUse"><stop offset="0.09" stop-color="#fff"/><stop offset="0.17" stop-color="#f6f6f6"/><stop offset="0.3" stop-color="#dedede"/><stop offset="0.45" stop-color="#b6b6b6"/><stop offset="0.64" stop-color="#7f7f7f"/><stop offset="0.85" stop-color="#393939"/><stop offset="1"/></radialGradient><filter id="luminosity-noclip-2" x="214.02" y="-8613" width="124.34" height="32766" filterUnits="userSpaceOnUse" color-interpolation-filters="sRGB"><feFlood flood-color="#fff" result="bg"/><feBlend in="SourceGraphic" in2="bg"/></filter><mask id="mask-2" x="214.02" y="-8613" width="124.34" height="32766" maskUnits="userSpaceOnUse"><g class="cls-64"/></mask><linearGradient id="linear-gradient" x1="-781.06" y1="688.97" x2="-605.22" y2="688.97" gradientTransform="matrix(-0.71, 0.71, 0.71, 0.71, -709.6, 293.04)" gradientUnits="userSpaceOnUse"><stop offset="0" stop-color="#595959"/><stop offset="1" stop-color="#fff"/></linearGradient><filter id="luminosity-noclip-3" x="80.52" y="-8613" width="124.34" height="32766" filterUnits="userSpaceOnUse" color-interpolation-filters="sRGB"><feFlood flood-color="#fff" result="bg"/><feBlend in="SourceGraphic" in2="bg"/></filter><mask id="mask-3" x="80.52" y="-8613" width="124.34" height="32766" maskUnits="userSpaceOnUse"><g class="cls-63"/></mask><linearGradient id="linear-gradient-2" x1="756.84" y1="-966.31" x2="756.84" y2="-825.93" gradientTransform="translate(-1024.27 280.6) rotate(45)" gradientUnits="userSpaceOnUse"><stop offset="0" stop-color="#fff"/><stop offset="1" stop-color="#595959"/></linearGradient><filter id="luminosity-noclip-4" x="137.34" y="-8613" width="160.42" height="32766" filterUnits="userSpaceOnUse" color-interpolation-filters="sRGB"><feFlood flood-color="#fff" result="bg"/><feBlend in="SourceGraphic" in2="bg"/></filter><mask id="mask-4" x="137.34" y="-8613" width="160.42" height="32766" maskUnits="userSpaceOnUse"><g class="cls-62"/></mask><linearGradient id="linear-gradient-3" x1="-695.84" y1="666.64" x2="-703.97" y2="611.53" xlink:href="#linear-gradient"/><filter id="luminosity-noclip-5" x="122.58" y="-8613" width="170.57" height="32766" filterUnits="userSpaceOnUse" color-interpolation-filters="sRGB"><feFlood flood-color="#fff" result="bg"/><feBlend in="SourceGraphic" in2="bg"/></filter><mask id="mask-5" x="122.58" y="-8613" width="170.57" height="32766" maskUnits="userSpaceOnUse"><g class="cls-61"/></mask><linearGradient id="linear-gradient-4" x1="-686.93" y1="610.62" x2="-740.56" y2="556.55" xlink:href="#linear-gradient"/><filter id="luminosity-noclip-6" x="209.53" y="-8613" width="137.99" height="32766" filterUnits="userSpaceOnUse" color-interpolation-filters="sRGB"><feFlood flood-color="#fff" result="bg"/><feBlend in="SourceGraphic" in2="bg"/></filter><mask id="mask-6" x="209.53" y="-8613" width="137.99" height="32766" maskUnits="userSpaceOnUse"><g class="cls-60"/></mask><linearGradient id="linear-gradient-5" x1="-772.18" y1="554.36" x2="-776.71" y2="726.02" gradientTransform="matrix(-0.71, 0.71, 0.71, 0.71, -709.6, 293.04)" xlink:href="#linear-gradient-2"/><filter id="luminosity-noclip-7" x="121.37" y="-8613" width="176.32" height="32766" filterUnits="userSpaceOnUse" color-interpolation-filters="sRGB"><feFlood flood-color="#fff" result="bg"/><feBlend in="SourceGraphic" in2="bg"/></filter><mask id="mask-7" x="121.37" y="-8613" width="176.32" height="32766" maskUnits="userSpaceOnUse"><g class="cls-59"/></mask><linearGradient id="linear-gradient-6" x1="-693.14" y1="630.22" x2="-693.14" y2="540.76" gradientTransform="matrix(-1, 0, 0, 1, -483.58, -374.8)" xlink:href="#linear-gradient"/><filter id="luminosity-noclip-8" x="214.81" y="-8613" width="124.34" height="32766" filterUnits="userSpaceOnUse" color-interpolation-filters="sRGB"><feFlood flood-color="#fff" result="bg"/><feBlend in="SourceGraphic" in2="bg"/></filter><mask id="mask-8" x="214.81" y="-8613" width="124.34" height="32766" maskUnits="userSpaceOnUse"><g class="cls-58"/></mask><linearGradient id="linear-gradient-7" x1="-775.31" y1="548.45" x2="-775.31" y2="688.82" gradientTransform="matrix(-0.71, 0.71, 0.71, 0.71, -709.6, 293.04)" xlink:href="#linear-gradient-2"/><filter id="luminosity-noclip-9" x="83.16" y="-8613" width="124.34" height="32766" filterUnits="userSpaceOnUse" color-interpolation-filters="sRGB"><feFlood flood-color="#fff" result="bg"/><feBlend in="SourceGraphic" in2="bg"/></filter><mask id="mask-9" x="83.16" y="-8613" width="124.34" height="32766" maskUnits="userSpaceOnUse"><g class="cls-57"/></mask><linearGradient id="linear-gradient-8" x1="1586.8" y1="548.45" x2="1586.8" y2="688.83" gradientTransform="translate(-1398.04 981.48) rotate(-45)" xlink:href="#linear-gradient-2"/><linearGradient id="linear-gradient-9" x1="166.7" y1="-0.86" x2="266.16" y2="487.81" gradientUnits="userSpaceOnUse"><stop offset="0" stop-color="#fde403"/><stop offset="1" stop-color="#e57d00"/></linearGradient><linearGradient id="linear-gradient-10" x1="214.21" y1="468.47" x2="214.21" y2="113.84" xlink:href="#linear-gradient-9"/><filter id="luminosity-noclip-10" x="131.75" y="58.54" width="60.01" height="55.88" filterUnits="userSpaceOnUse" color-interpolation-filters="sRGB"><feFlood flood-color="#fff" result="bg"/><feBlend in="SourceGraphic" in2="bg"/></filter><mask id="mask-10" x="131.75" y="58.54" width="60.01" height="55.88" maskUnits="userSpaceOnUse"><g class="cls-1"><path class="cls-2" d="M161.75,58.54c-16.57,0-30,12.51-30,27.95s13.43,27.93,30,27.93,30-12.52,30-27.93S178.32,58.54,161.75,58.54Z"/></g></mask><radialGradient id="radial-gradient-2" cx="161.75" cy="86.48" r="28.99" gradientUnits="userSpaceOnUse"><stop offset="0.09" stop-color="#fff"/><stop offset="1" stop-color="#fff"/></radialGradient><linearGradient id="linear-gradient-11" x1="71.28" y1="232.2" x2="347.26" y2="232.2" gradientTransform="translate(225.48 -79.97) rotate(45)" gradientUnits="userSpaceOnUse"><stop offset="0.02" stop-color="#00acff"/><stop offset="1" stop-color="#002b9f"/></linearGradient><filter id="luminosity-noclip-11" x="209.53" y="93.95" width="137.99" height="137.99" filterUnits="userSpaceOnUse" color-interpolation-filters="sRGB"><feFlood flood-color="#fff" result="bg"/><feBlend in="SourceGraphic" in2="bg"/></filter><mask id="mask-11" x="209.53" y="93.95" width="137.99" height="137.99" maskUnits="userSpaceOnUse"><g class="cls-11"><polygon class="cls-12" points="209.53 143.78 297.69 231.94 347.53 231.94 209.53 93.95 209.53 143.78"/></g></mask><linearGradient id="linear-gradient-12" x1="-772.18" y1="554.36" x2="-776.71" y2="726.02" gradientTransform="matrix(-0.71, 0.71, 0.71, 0.71, -709.6, 293.04)" gradientUnits="userSpaceOnUse"><stop offset="0" stop-color="#fff"/><stop offset="1" stop-color="#fff"/></linearGradient><filter id="luminosity-noclip-12" x="121.37" y="143.78" width="176.32" height="176.32" filterUnits="userSpaceOnUse" color-interpolation-filters="sRGB"><feFlood flood-color="#fff" result="bg"/><feBlend in="SourceGraphic" in2="bg"/></filter><mask id="mask-12" x="121.37" y="143.78" width="176.32" height="176.32" maskUnits="userSpaceOnUse"><g class="cls-13"><rect class="cls-14" x="147.19" y="169.6" width="124.68" height="124.68" transform="translate(-102.64 216.11) rotate(-45)"/></g></mask><linearGradient id="linear-gradient-13" x1="-693.14" y1="630.22" x2="-693.14" y2="540.76" gradientTransform="matrix(-1, 0, 0, 1, -483.58, -374.8)" xlink:href="#linear-gradient-12"/><filter id="luminosity-noclip-13" x="214.81" y="104" width="124.34" height="124.34" filterUnits="userSpaceOnUse" color-interpolation-filters="sRGB"><feFlood flood-color="#fff" result="bg"/><feBlend in="SourceGraphic" in2="bg"/></filter><mask id="mask-13" x="214.81" y="104" width="124.34" height="124.34" maskUnits="userSpaceOnUse"><g class="cls-15"><polygon class="cls-16" points="214.81 104 217.2 140.42 300.1 223.31 339.15 228.34 214.81 104"/></g></mask><linearGradient id="linear-gradient-14" x1="-775.31" y1="548.45" x2="-775.31" y2="688.82" xlink:href="#linear-gradient-12"/><filter id="luminosity-noclip-14" x="83.16" y="235.64" width="124.34" height="124.34" filterUnits="userSpaceOnUse" color-interpolation-filters="sRGB"><feFlood flood-color="#fff" result="bg"/><feBlend in="SourceGraphic" in2="bg"/></filter><mask id="mask-14" x="83.16" y="235.64" width="124.34" height="124.34" maskUnits="userSpaceOnUse"><g class="cls-17"><polygon class="cls-18" points="83.16 235.65 119.58 238.04 202.47 320.94 207.51 359.99 83.16 235.65"/></g></mask><linearGradient id="linear-gradient-15" x1="1586.8" y1="548.45" x2="1586.8" y2="688.83" gradientTransform="translate(-1398.04 981.48) rotate(-45)" xlink:href="#linear-gradient-12"/><filter id="luminosity-noclip-15" x="214.02" y="236.43" width="124.34" height="124.34" filterUnits="userSpaceOnUse" color-interpolation-filters="sRGB"><feFlood flood-color="#fff" result="bg"/><feBlend in="SourceGraphic" in2="bg"/></filter><mask id="mask-15" x="214.02" y="236.43" width="124.34" height="124.34" maskUnits="userSpaceOnUse"><g class="cls-3"><polygon class="cls-4" points="338.36 236.43 301.94 238.83 219.05 321.72 214.02 360.77 338.36 236.43"/></g></mask><linearGradient id="linear-gradient-16" x1="-781.06" y1="688.97" x2="-605.22" y2="688.97" xlink:href="#linear-gradient-12"/><filter id="luminosity-noclip-16" x="80.52" y="102.93" width="124.34" height="124.34" filterUnits="userSpaceOnUse" color-interpolation-filters="sRGB"><feFlood flood-color="#fff" result="bg"/><feBlend in="SourceGraphic" in2="bg"/></filter><mask id="mask-16" x="80.52" y="102.93" width="124.34" height="124.34" maskUnits="userSpaceOnUse"><g class="cls-5"><polygon class="cls-6" points="204.86 102.93 204.32 141.2 121.43 224.1 80.52 227.27 204.86 102.93"/></g></mask><linearGradient id="linear-gradient-17" x1="756.84" y1="-966.31" x2="756.84" y2="-825.93" gradientTransform="translate(-1024.27 280.6) rotate(45)" xlink:href="#linear-gradient-12"/><filter id="luminosity-noclip-17" x="137.34" y="175.4" width="160.42" height="126.48" filterUnits="userSpaceOnUse" color-interpolation-filters="sRGB"><feFlood flood-color="#fff" result="bg"/><feBlend in="SourceGraphic" in2="bg"/></filter><mask id="mask-17" x="137.34" y="175.4" width="160.42" height="126.48" maskUnits="userSpaceOnUse"><g class="cls-7"><polygon class="cls-8" points="179.82 175.4 257.54 189.07 297.75 229.29 154.91 202.88 257.43 269.62 225.17 301.88 137.34 217.88 179.82 175.4"/></g></mask><linearGradient id="linear-gradient-18" x1="-695.84" y1="666.64" x2="-703.97" y2="611.53" xlink:href="#linear-gradient-12"/><filter id="luminosity-noclip-18" x="122.58" y="152.39" width="170.57" height="102.17" filterUnits="userSpaceOnUse" color-interpolation-filters="sRGB"><feFlood flood-color="#fff" result="bg"/><feBlend in="SourceGraphic" in2="bg"/></filter><mask id="mask-18" x="122.58" y="152.39" width="170.57" height="102.17" maskUnits="userSpaceOnUse"><g class="cls-9"><path class="cls-10" d="M123.47,235.65s30,42.52,75.66,0c31.76-29.54,94-5.42,94-5.42s-80.74-76.9-83.13-77.87S112.44,236.13,123.47,235.65Z"/></g></mask><linearGradient id="linear-gradient-19" x1="-686.93" y1="610.62" x2="-740.56" y2="556.55" xlink:href="#linear-gradient-12"/><linearGradient id="linear-gradient-20" x1="228.37" y1="156.52" x2="205.06" y2="81.45" gradientUnits="userSpaceOnUse"><stop offset="0" stop-color="#e57d00"/><stop offset="1" stop-color="#fde403"/></linearGradient><linearGradient id="linear-gradient-21" x1="217.03" y1="379.01" x2="181.6" y2="302.54" xlink:href="#linear-gradient-20"/><linearGradient id="linear-gradient-22" x1="-1817.65" y1="675.23" x2="-1853.09" y2="598.76" gradientTransform="translate(751.97 2058.9) rotate(90)" xlink:href="#linear-gradient-20"/><linearGradient id="linear-gradient-23" x1="-1817.65" y1="2262.48" x2="-1853.08" y2="2186.01" gradientTransform="matrix(0, 1, 1, 0, -1916.36, 2058.9)" xlink:href="#linear-gradient-20"/></defs><g class="cls-19"><g id="Layer_1" data-name="Layer 1"><path class="cls-20" d="M429.06,233.85,222.59,27.38a9.57,9.57,0,0,0-13.49,0L2.63,233.85a9.58,9.58,0,0,0,0,13.5L209.1,453.82a9.57,9.57,0,0,0,13.49,0L429.06,247.35A9.56,9.56,0,0,0,429.06,233.85Z"/><path class="cls-21" d="M205.41,31.07,6.32,230.16a14.81,14.81,0,0,0,0,20.88l4.38,4.38a14.81,14.81,0,0,1,0-20.88L209.79,35.45a14.8,14.8,0,0,1,20.87,0l-4.37-4.38A14.81,14.81,0,0,0,205.41,31.07Z"/><path class="cls-22" d="M209.52,28.42a14.5,14.5,0,0,1,4.92,3.25L413.53,230.75a14.81,14.81,0,0,1,0,20.88L214.44,450.72a14.65,14.65,0,0,1-4.53,3.07,14.83,14.83,0,0,0,16-3.24L425,251.46a14.81,14.81,0,0,0,0-20.88L225.87,31.49A14.82,14.82,0,0,0,209.52,28.42Z"/><path class="cls-23" d="M235.51,328.84c59.5-59.5,88.08-136.21,83.29-205.25L226.29,31.07a14.81,14.81,0,0,0-20.88,0L6.32,230.16a14.81,14.81,0,0,0,0,20.88L145.91,390.63A295.85,295.85,0,0,0,235.51,328.84Z"/><path class="cls-23" d="M205.41,31.07,6.32,230.16a14.81,14.81,0,0,0,0,20.88L42.2,286.92a295.85,295.85,0,0,0,89.6-61.79C189.32,167.61,217.93,94,215.45,26.79A14.74,14.74,0,0,0,205.41,31.07Z"/><path class="cls-24" d="M360.32,235.49,221,96.13a9.58,9.58,0,0,0-13.5,0L68.1,235.49a9.58,9.58,0,0,0,0,13.5L207.46,388.34a9.56,9.56,0,0,0,13.5,0L360.32,249A9.58,9.58,0,0,0,360.32,235.49Z"/><path class="cls-21" d="M199.42,95.47l-132,132a20.94,20.94,0,0,0,0,29.57l132,132A20.93,20.93,0,0,0,229,389L361,257a20.93,20.93,0,0,0,0-29.58l-132-132A21,21,0,0,0,199.42,95.47ZM352.28,236.15a8.64,8.64,0,0,1,0,12.18l-132,132a8.64,8.64,0,0,1-12.18,0l-132-132a8.64,8.64,0,0,1,0-12.18l132-132a8.62,8.62,0,0,1,12.18,0Z"/><path class="cls-25" d="M196.08,368.27A127.56,127.56,0,0,1,275.78,151L224.65,99.82a14.81,14.81,0,0,0-20.88,0l-132,132a14.81,14.81,0,0,0,0,20.88l132,132a14.81,14.81,0,0,0,16.88,2.83A128,128,0,0,1,196.08,368.27Z"/><path class="cls-26" d="M198.87,63.43c1.81,9-38,53.61-67,82.64s-69.24,80.4-71.47,62.54S196.64,52.27,198.87,63.43Z"/><g class="cls-27"><path class="cls-28" d="M161.75,58.54c-16.57,0-30,12.51-30,27.95s13.43,27.93,30,27.93,30-12.52,30-27.93S178.32,58.54,161.75,58.54Z"/></g><path class="cls-29" d="M134.35,123.26c8.05-9,31.73-36.77,31.73-36.77s19.77-37.11,20.25-38.16c.14-.3-25.27,34.9-25.27,34.9Z"/><path class="cls-26" d="M168.28,79.85c-7.3-5.71-6-21.75-6-26.29v4.35c0-.7-.06-1.45-.06-1.61V53.56a48.26,48.26,0,0,1-.4,5.74s-2.14,16.1-6,19.43c-8.69,7.62-30.56,6.15-22.17,6.35,28.32.61,28.32,28.25,28.57,37.32v-4.56c0,.32.06.6.06.76v3.8c.6-21.46.53-35.05,25.24-36.86C195.67,84.91,176.81,86.49,168.28,79.85Z"/><rect class="cls-30" x="111.7" y="134.63" width="195.15" height="195.15" transform="translate(-102.9 215.99) rotate(-45)"/><polygon class="cls-31" points="121.38 231.94 209.53 143.78 209.53 93.95 71.54 231.94 121.38 231.94"/><polygon class="cls-32" points="297.69 231.94 209.53 320.1 208.82 367.36 347.53 231.94 297.69 231.94"/><g class="cls-33"><polygon class="cls-34" points="209.53 143.78 297.69 231.94 347.53 231.94 209.53 93.95 209.53 143.78"/></g><polygon class="cls-35" points="209.53 320.09 121.38 231.94 71.54 231.94 209.53 369.93 209.53 320.09"/><g class="cls-36"><rect class="cls-37" x="147.19" y="169.6" width="124.68" height="124.68" transform="translate(-102.64 216.11) rotate(-45)"/></g><polygon class="cls-26" points="71.54 231.94 118.81 234.5 209.53 320.1 125.69 233.37 210.49 148.57 297.69 231.94 212.41 140.9 209.53 93.95 206.02 146.65 123.28 229.38 71.54 231.94"/><g class="cls-38"><polygon class="cls-39" points="214.81 104 217.2 140.42 300.1 223.31 339.15 228.34 214.81 104"/></g><g class="cls-40"><polygon class="cls-41" points="83.16 235.65 119.58 238.04 202.47 320.94 207.51 359.99 83.16 235.65"/></g><g class="cls-42"><polygon class="cls-43" points="338.36 236.43 301.94 238.83 219.05 321.72 214.02 360.77 338.36 236.43"/></g><g class="cls-44"><polygon class="cls-45" points="204.86 102.93 204.32 141.2 121.43 224.1 80.52 227.27 204.86 102.93"/></g><g class="cls-46"><polygon class="cls-47" points="179.82 175.4 257.54 189.07 297.75 229.29 154.91 202.88 257.43 269.62 225.17 301.88 137.34 217.88 179.82 175.4"/></g><g class="cls-48"><path class="cls-49" d="M123.47,235.65s30,42.52,75.66,0c31.76-29.54,94-5.42,94-5.42s-80.74-76.9-83.13-77.87S112.44,236.13,123.47,235.65Z"/></g><polygon class="cls-50" points="207.84 75.92 207.84 142.44 227.34 101.15 207.84 75.92"/><polygon class="cls-51" points="207.84 75.92 207.84 142.44 188.34 101.15 207.84 75.92"/><polygon class="cls-52" points="207.84 75.92 188.46 101 227.22 101 207.84 75.92"/><polygon class="cls-26" points="205.98 103.71 188.46 101 207.84 75.92 207.84 142.44 205.98 103.71"/><polygon class="cls-51" points="207.72 392.57 207.72 326.05 188.23 367.34 207.72 392.57"/><polygon class="cls-53" points="207.72 392.57 207.72 326.05 227.22 367.34 207.72 392.57"/><polygon class="cls-26" points="207.72 326.68 205.49 365.67 188.34 367.49 207.72 367.49 207.72 326.68"/><polygon class="cls-51" points="63.19 231.94 129.71 231.94 88.42 212.44 63.19 231.94"/><polygon class="cls-54" points="63.19 231.94 129.71 231.94 88.42 251.43 63.19 231.94"/><polygon class="cls-55" points="63.19 231.94 88.27 251.31 88.27 212.56 63.19 231.94"/><polygon class="cls-26" points="89.44 230.59 88.73 212.59 87.11 230.59 63.19 231.94 129.71 231.94 89.44 230.59"/><polygon class="cls-51" points="359.67 231.94 293.15 231.94 334.44 212.44 359.67 231.94"/><polygon class="cls-56" points="359.67 231.94 293.15 231.94 334.44 251.43 359.67 231.94"/><polygon class="cls-26" points="333.42 230.59 334.13 212.59 335.75 230.59 359.67 231.94 293.15 231.94 333.42 230.59"/></g></g></svg>