<svg xmlns="http://www.w3.org/2000/svg" xmlns:xlink="http://www.w3.org/1999/xlink" viewBox="0 0 432 480"><defs><style>.cls-1{mask:url(#mask);filter:url(#luminosity-noclip-6);}.cls-10,.cls-19,.cls-2,.cls-27,.cls-35,.cls-36,.cls-37,.cls-4,.cls-6,.cls-8{mix-blend-mode:multiply;}.cls-2{fill:url(#radial-gradient);}.cls-3{mask:url(#mask-2);filter:url(#luminosity-noclip-7);}.cls-4{fill:url(#linear-gradient);}.cls-5{mask:url(#mask-3);filter:url(#luminosity-noclip-8);}.cls-6{fill:url(#linear-gradient-2);}.cls-7{mask:url(#mask-4);filter:url(#luminosity-noclip-9);}.cls-8{fill:url(#linear-gradient-3);}.cls-9{mask:url(#mask-5);filter:url(#luminosity-noclip-10);}.cls-10{fill:url(#linear-gradient-4);}.cls-11{isolation:isolate;}.cls-12{fill:url(#linear-gradient-5);}.cls-13{fill:#ffef57;}.cls-14,.cls-15,.cls-16,.cls-22,.cls-40{fill:#fff;}.cls-14,.cls-15,.cls-18,.cls-21,.cls-25,.cls-28,.cls-30,.cls-32,.cls-34,.cls-40{mix-blend-mode:overlay;}.cls-14,.cls-18{opacity:0.35;}.cls-15{opacity:0.49;}.cls-17{fill:url(#linear-gradient-6);}.cls-19{fill:#e57d00;opacity:0.44;}.cls-20{mask:url(#mask-6);}.cls-21{fill:url(#radial-gradient-2);}.cls-22{opacity:0.7;}.cls-23{fill:url(#linear-gradient-7);}.cls-24{mask:url(#mask-7);}.cls-25{opacity:0.5;fill:url(#linear-gradient-8);}.cls-26,.cls-28{fill:#f4eef9;}.cls-26{mix-blend-mode:soft-light;}.cls-27,.cls-34{opacity:0.4;}.cls-28{opacity:0.58;}.cls-29{mask:url(#mask-8);}.cls-30,.cls-32{opacity:0.53;}.cls-30{fill:url(#linear-gradient-9);}.cls-31{mask:url(#mask-9);}.cls-32{fill:url(#linear-gradient-10);}.cls-33{mask:url(#mask-10);}.cls-34{fill:url(#linear-gradient-11);}.cls-35{opacity:0.25;}.cls-36{opacity:0.15;}.cls-37{opacity:0.1;}.cls-38{fill:url(#linear-gradient-12);}.cls-39,.cls-43{fill:#fff92a;}.cls-40{opacity:0.61;}.cls-41{fill:url(#linear-gradient-13);}.cls-42{fill:url(#linear-gradient-14);}.cls-43{opacity:0.64;}.cls-44{fill:url(#linear-gradient-15);}.cls-45{filter:url(#luminosity-noclip-5);}.cls-46{filter:url(#luminosity-noclip-4);}.cls-47{filter:url(#luminosity-noclip-3);}.cls-48{filter:url(#luminosity-noclip-2);}.cls-49{filter:url(#luminosity-noclip);}</style><filter id="luminosity-noclip" x="63.38" y="-8613" width="81.76" height="32766" filterUnits="userSpaceOnUse" color-interpolation-filters="sRGB"><feFlood flood-color="#fff" result="bg"/><feBlend in="SourceGraphic" in2="bg"/></filter><mask id="mask" x="63.38" y="-8613" width="81.76" height="32766" maskUnits="userSpaceOnUse"><g class="cls-49"/></mask><radialGradient id="radial-gradient" cx="104.26" cy="89.08" r="39.5" gradientUnits="userSpaceOnUse"><stop offset="0.09" stop-color="#fff"/><stop offset="0.17" stop-color="#f6f6f6"/><stop offset="0.3" stop-color="#dedede"/><stop offset="0.45" stop-color="#b6b6b6"/><stop offset="0.64" stop-color="#7f7f7f"/><stop offset="0.85" stop-color="#393939"/><stop offset="1"/></radialGradient><filter id="luminosity-noclip-2" x="135.72" y="-8613" width="163.51" height="32766" filterUnits="userSpaceOnUse" color-interpolation-filters="sRGB"><feFlood flood-color="#fff" result="bg"/><feBlend in="SourceGraphic" in2="bg"/></filter><mask id="mask-2" x="135.72" y="-8613" width="163.51" height="32766" maskUnits="userSpaceOnUse"><g class="cls-48"/></mask><linearGradient id="linear-gradient" x1="-1661.23" y1="3705.92" x2="-1497.72" y2="3705.92" gradientTransform="translate(3954.77 -1262.58) rotate(45)" gradientUnits="userSpaceOnUse"><stop offset="0" stop-color="#fff"/><stop offset="1" stop-color="#595959"/></linearGradient><filter id="luminosity-noclip-3" x="137.16" y="-8613" width="152.16" height="32766" filterUnits="userSpaceOnUse" color-interpolation-filters="sRGB"><feFlood flood-color="#fff" result="bg"/><feBlend in="SourceGraphic" in2="bg"/></filter><mask id="mask-3" x="137.16" y="-8613" width="152.16" height="32766" maskUnits="userSpaceOnUse"><g class="cls-47"/></mask><linearGradient id="linear-gradient-2" x1="-1599.87" y1="3738.68" x2="-1607.41" y2="3687.62" gradientTransform="translate(3954.77 -1262.58) rotate(45)" gradientUnits="userSpaceOnUse"><stop offset="0" stop-color="#595959"/><stop offset="1" stop-color="#fff"/></linearGradient><filter id="luminosity-noclip-4" x="151.08" y="-8613" width="148.39" height="32766" filterUnits="userSpaceOnUse" color-interpolation-filters="sRGB"><feFlood flood-color="#fff" result="bg"/><feBlend in="SourceGraphic" in2="bg"/></filter><mask id="mask-4" x="151.08" y="-8613" width="148.39" height="32766" maskUnits="userSpaceOnUse"><g class="cls-46"/></mask><linearGradient id="linear-gradient-3" x1="-1550.41" y1="3774.29" x2="-1560.27" y2="3707.5" xlink:href="#linear-gradient-2"/><filter id="luminosity-noclip-5" x="136.09" y="-8613" width="163.34" height="32766" filterUnits="userSpaceOnUse" color-interpolation-filters="sRGB"><feFlood flood-color="#fff" result="bg"/><feBlend in="SourceGraphic" in2="bg"/></filter><mask id="mask-5" x="136.09" y="-8613" width="163.34" height="32766" maskUnits="userSpaceOnUse"><g class="cls-45"/></mask><linearGradient id="linear-gradient-4" x1="-1662.54" y1="3693.09" x2="-1515.16" y2="3693.09" xlink:href="#linear-gradient-2"/><linearGradient id="linear-gradient-5" x1="207.48" y1="17.41" x2="224.57" y2="433.57" gradientUnits="userSpaceOnUse"><stop offset="0" stop-color="#fde403"/><stop offset="1" stop-color="#e57d00"/></linearGradient><linearGradient id="linear-gradient-6" x1="216.75" y1="364.98" x2="216.75" y2="122.18" xlink:href="#linear-gradient-5"/><filter id="luminosity-noclip-6" x="63.38" y="51.01" width="81.76" height="76.13" filterUnits="userSpaceOnUse" color-interpolation-filters="sRGB"><feFlood flood-color="#fff" result="bg"/><feBlend in="SourceGraphic" in2="bg"/></filter><mask id="mask-6" x="63.38" y="51.01" width="81.76" height="76.13" maskUnits="userSpaceOnUse"><g class="cls-1"><path class="cls-2" d="M104.26,51C81.69,51,63.38,68.06,63.38,89.09s18.31,38.06,40.88,38.06,40.88-17.06,40.88-38.06S126.83,51,104.26,51Z"/></g></mask><radialGradient id="radial-gradient-2" cx="104.26" cy="89.08" r="39.5" gradientUnits="userSpaceOnUse"><stop offset="0.09" stop-color="#fff"/><stop offset="1" stop-color="#fff"/></radialGradient><linearGradient id="linear-gradient-7" x1="-1632.44" y1="3584.96" x2="-1523.11" y2="3845.44" gradientTransform="translate(3954.77 -1262.58) rotate(45)" gradientUnits="userSpaceOnUse"><stop offset="0" stop-color="#335d00"/><stop offset="0.98" stop-color="#6e8300"/></linearGradient><filter id="luminosity-noclip-7" x="135.72" y="159.28" width="163.51" height="163.51" filterUnits="userSpaceOnUse" color-interpolation-filters="sRGB"><feFlood flood-color="#fff" result="bg"/><feBlend in="SourceGraphic" in2="bg"/></filter><mask id="mask-7" x="135.72" y="159.28" width="163.51" height="163.51" maskUnits="userSpaceOnUse"><g class="cls-3"><path class="cls-4" d="M275.28,298.84a81.76,81.76,0,1,1,0-115.61A81.75,81.75,0,0,1,275.28,298.84Z"/></g></mask><linearGradient id="linear-gradient-8" x1="-1661.23" y1="3705.92" x2="-1497.72" y2="3705.92" gradientTransform="translate(3954.77 -1262.58) rotate(45)" gradientUnits="userSpaceOnUse"><stop offset="0" stop-color="#fff"/><stop offset="1" stop-color="#fff"/></linearGradient><filter id="luminosity-noclip-8" x="137.16" y="158.38" width="152.16" height="67.25" filterUnits="userSpaceOnUse" color-interpolation-filters="sRGB"><feFlood flood-color="#fff" result="bg"/><feBlend in="SourceGraphic" in2="bg"/></filter><mask id="mask-8" x="137.16" y="158.38" width="152.16" height="67.25" maskUnits="userSpaceOnUse"><g class="cls-5"><path class="cls-6" d="M275.57,181.07a81.83,81.83,0,0,0-9.91-8.34l-61.81-14.35a81.42,81.42,0,0,0-66.69,67.26l152.16-26.2A81.41,81.41,0,0,0,275.57,181.07Z"/></g></mask><linearGradient id="linear-gradient-9" x1="-1599.87" y1="3738.68" x2="-1607.41" y2="3687.62" xlink:href="#linear-gradient-8"/><filter id="luminosity-noclip-9" x="151.08" y="200.1" width="148.39" height="120.35" filterUnits="userSpaceOnUse" color-interpolation-filters="sRGB"><feFlood flood-color="#fff" result="bg"/><feBlend in="SourceGraphic" in2="bg"/></filter><mask id="mask-9" x="151.08" y="200.1" width="148.39" height="120.35" maskUnits="userSpaceOnUse"><g class="cls-7"><path class="cls-8" d="M160,296.69a81.38,81.38,0,0,0,53.84,23.76L299.47,238a81.47,81.47,0,0,0-9.75-37.85l-138.64,86A82.17,82.17,0,0,0,160,296.69Z"/></g></mask><linearGradient id="linear-gradient-10" x1="-1550.41" y1="3774.29" x2="-1560.27" y2="3707.5" xlink:href="#linear-gradient-8"/><filter id="luminosity-noclip-10" x="136.09" y="157.13" width="163.34" height="93.79" filterUnits="userSpaceOnUse" color-interpolation-filters="sRGB"><feFlood flood-color="#fff" result="bg"/><feBlend in="SourceGraphic" in2="bg"/></filter><mask id="mask-10" x="136.09" y="157.13" width="163.34" height="93.79" maskUnits="userSpaceOnUse"><g class="cls-9"><path class="cls-10" d="M275.57,181.07a81.68,81.68,0,0,0-139.44,60.41c14.61-10.41,38.11-22.88,68.29-25.28,33.75-2.68,70.76,18.3,94.12,34.72A81.57,81.57,0,0,0,275.57,181.07Z"/></g></mask><linearGradient id="linear-gradient-11" x1="-1662.54" y1="3693.09" x2="-1515.16" y2="3693.09" xlink:href="#linear-gradient-8"/><linearGradient id="linear-gradient-12" x1="-1555.39" y1="3641.36" x2="-1585.26" y2="3545.17" gradientTransform="translate(3954.77 -1262.58) rotate(45)" gradientUnits="userSpaceOnUse"><stop offset="0" stop-color="#e57d00"/><stop offset="1" stop-color="#fde403"/></linearGradient><linearGradient id="linear-gradient-13" x1="-1569.92" y1="3853.07" x2="-1615.32" y2="3755.09" xlink:href="#linear-gradient-12"/><linearGradient id="linear-gradient-14" x1="2133.21" y1="2956.75" x2="2087.8" y2="2858.78" gradientTransform="translate(3703.91 725.11) rotate(135)" xlink:href="#linear-gradient-12"/><linearGradient id="linear-gradient-15" x1="2133.21" y1="5.45" x2="2087.8" y2="-92.53" gradientTransform="matrix(-0.71, 0.71, 0.71, 0.71, 1817, -1161.79)" xlink:href="#linear-gradient-12"/></defs><g class="cls-11"><g id="Layer_1" data-name="Layer 1"><path class="cls-12" d="M216.51,38.42c-112.95,0-204.5,89-204.5,198.81s91.55,198.84,204.5,198.84S421,347,421,237.23,329.44,38.42,216.51,38.42Z"/><path class="cls-13" d="M215.5,427.15c-111.41,0-202-86.63-204.44-194.37,0,1.48-.06,3-.06,4.45C11,347,102.55,436.07,215.5,436.07S420,347,420,237.23c0-1.49,0-3-.06-4.45C417.49,340.52,326.89,427.15,215.5,427.15Z"/><path class="cls-14" d="M216.51,38.42c-112.95,0-204.5,89-204.5,198.81,0,2.43.11,4.8.21,7.21C64.3,289.86,136,318,215.18,318c80.56,0,153.39-29.08,205.68-75.93.05-1.61.14-3.17.14-4.79C421,127.44,329.44,38.42,216.51,38.42Z"/><path class="cls-15" d="M216.5,49.8c111,0,201.23,86,204.33,193.12.07-1.88.16-3.77.16-5.69C421,127.44,329.43,38.42,216.5,38.42S12,127.44,12,237.23c0,1.92.09,3.81.15,5.69C15.28,135.77,105.53,49.8,216.5,49.8Z"/><path class="cls-16" d="M188.93,51.49c9.51-.73,19.32,2.9,14.57,7s-36.95,22.7-51,11.23S177.73,52.35,188.93,51.49Z"/><path class="cls-16" d="M78.28,102C48.49,127.11,24.42,173.42,25,200.49s15.06-15.4,22.53-30.8,44.79-62.37,71.84-76.57S124.87,62.85,78.28,102Z"/><path class="cls-17" d="M216.76,89.2c-84,0-152,66.2-152,147.83s68.07,147.84,152.05,147.84,152-66.19,152-147.84S300.74,89.2,216.76,89.2Z"/><g class="cls-18"><path class="cls-16" d="M216.51,394.72C128,394.72,56,324.6,56,238.41s72-156.3,160.56-156.3,160.55,70.12,160.55,156.3S305,394.72,216.51,394.72Zm0-298.43c-80.7,0-146.37,63.76-146.37,142.12s65.67,142.12,146.37,142.12,146.36-63.75,146.36-142.12S297.21,96.29,216.51,96.29Z"/></g><path class="cls-19" d="M216.76,89.2a153.56,153.56,0,0,0-112.51,48.42A153.78,153.78,0,0,1,207.71,98.1c84,0,152,66.17,152,147.82a145,145,0,0,1-39.53,99.45c29.9-27,48.59-65.54,48.59-108.34C368.79,155.4,300.74,89.2,216.76,89.2Z"/><path class="cls-19" d="M122.06,324.48c0-95.4,68.07-147.83,152-147.83a154,154,0,0,1,91.38,29.69C351,139.43,289.88,89.2,216.73,89.2c-84,0-152,66.2-152,147.83,0,48.32,23.82,91.19,60.65,118.17A146,146,0,0,1,122.06,324.48Z"/><path class="cls-13" d="M216.76,376.8c-82.5,0-149.61-63.92-151.91-143.59-.07,1.42-.14,2.82-.14,4.25,0,81.66,68.07,147.83,152.05,147.83s152-66.17,152-147.83c0-1.43-.06-2.83-.1-4.25C366.36,312.88,299.27,376.8,216.76,376.8Z"/><g class="cls-20"><path class="cls-21" d="M104.26,51C81.69,51,63.38,68.06,63.38,89.09s18.31,38.06,40.88,38.06,40.88-17.06,40.88-38.06S126.83,51,104.26,51Z"/></g><path class="cls-22" d="M66.93,139.19c11-12.32,43.23-50.1,43.23-50.1s26.94-50.56,27.59-52c.18-.41-34.43,47.54-34.43,47.54Z"/><path class="cls-16" d="M113.15,80c-9.94-7.78-8.13-29.63-8.21-35.82v5.93c0-.94-.08-2-.08-2.19V44.22a65.81,65.81,0,0,1-.55,7.83S101.39,74,96.14,78.52C84.3,88.91,54.5,86.91,65.93,87.17c38.59.83,38.59,38.5,38.93,50.85V131.8c0,.45.08.82.08,1V138c.82-29.24.72-47.75,34.39-50.22C150.48,86.94,124.78,89.09,113.15,80Z"/><path class="cls-23" d="M309.44,333.22a132.35,132.35,0,1,1,0-187.17A132.36,132.36,0,0,1,309.44,333.22Z"/><g class="cls-24"><path class="cls-25" d="M275.28,298.84a81.76,81.76,0,1,1,0-115.61A81.75,81.75,0,0,1,275.28,298.84Z"/></g><path class="cls-26" d="M307,148.23a134,134,0,0,1,2.29,187.07c.85-.8,1.75-1.49,2.57-2.31A134.08,134.08,0,0,0,122.26,143.37c-.82.82-1.51,1.72-2.32,2.55A134,134,0,0,1,307,148.23Z"/><path class="cls-27" d="M126.93,328.32a134,134,0,0,1-2.22-187.16c-.81.77-1.67,1.43-2.45,2.21A134.08,134.08,0,0,0,311.88,333c.78-.78,1.44-1.65,2.2-2.45A134,134,0,0,1,126.93,328.32Z"/><path class="cls-28" d="M305.75,149.52a123.8,123.8,0,1,0,0,175.06A123.79,123.79,0,0,0,305.75,149.52Z"/><path class="cls-26" d="M257,120.13l-7,28.59a93.67,93.67,0,0,1,60.25,64.79l.51.51,28.12-6.83A123.06,123.06,0,0,0,257,120.13Z"/><path class="cls-16" d="M161.08,187.88a81.69,81.69,0,0,1,137.72,40.8,81.69,81.69,0,1,0-161,27.23A81.51,81.51,0,0,1,161.08,187.88Z"/><g class="cls-29"><path class="cls-30" d="M275.57,181.07a81.83,81.83,0,0,0-9.91-8.34l-61.81-14.35a81.42,81.42,0,0,0-66.69,67.26l152.16-26.2A81.41,81.41,0,0,0,275.57,181.07Z"/></g><g class="cls-31"><path class="cls-32" d="M160,296.69a81.38,81.38,0,0,0,53.84,23.76L299.47,238a81.47,81.47,0,0,0-9.75-37.85l-138.64,86A82.17,82.17,0,0,0,160,296.69Z"/></g><g class="cls-33"><path class="cls-34" d="M275.57,181.07a81.68,81.68,0,0,0-139.44,60.41c14.61-10.41,38.11-22.88,68.29-25.28,33.75-2.68,70.76,18.3,94.12,34.72A81.57,81.57,0,0,0,275.57,181.07Z"/></g><path class="cls-35" d="M186.94,356.58l7.75-28.28a93.87,93.87,0,0,1-67.94-67.42l-28.29,7.64a123,123,0,0,0,88.48,88.06Z"/><path class="cls-36" d="M305.73,324.58c.42-.42.78-.88,1.19-1.31l-20.65-20.85c-.45.45-.82.95-1.28,1.41a94.31,94.31,0,0,1-90.24,24.62l-7.7,28.29A123.64,123.64,0,0,0,305.73,324.58Z"/><path class="cls-37" d="M127,261.11a94.35,94.35,0,0,1,24.46-90.85c.41-.41.85-.76,1.27-1.14L131.9,148.39c-.39.4-.83.73-1.23,1.13a123.58,123.58,0,0,0-32,119.19Z"/><polygon class="cls-38" points="334.57 120.79 274.3 181.06 329.37 161.31 334.57 120.79"/><polygon class="cls-39" points="334.57 120.79 274.3 181.06 294.04 125.99 334.57 120.79"/><polygon class="cls-40" points="334.57 120.79 294.29 125.95 329.4 161.07 334.57 120.79"/><polygon class="cls-16" points="307.71 144.28 294.29 125.95 334.57 120.79 274.3 181.06 307.71 144.28"/><polygon class="cls-39" points="99.45 355.68 159.72 295.42 104.65 315.15 99.45 355.68"/><polygon class="cls-41" points="99.45 355.68 159.72 295.42 139.98 350.48 99.45 355.68"/><polygon class="cls-16" points="159.16 295.98 121.81 329.29 104.62 315.4 122.18 332.96 159.16 295.98"/><polygon class="cls-39" points="100.95 122.07 161.22 182.33 141.48 127.26 100.95 122.07"/><polygon class="cls-42" points="100.95 122.07 161.22 182.33 106.15 162.59 100.95 122.07"/><polygon class="cls-43" points="100.95 122.07 106.11 162.34 141.23 127.22 100.95 122.07"/><polygon class="cls-16" points="125.96 144.63 141.63 127.67 123.84 142.51 100.95 122.07 161.22 182.33 125.96 144.63"/><polygon class="cls-39" points="333.18 354.3 272.91 294.03 327.99 313.77 333.18 354.3"/><polygon class="cls-44" points="333.18 354.3 272.91 294.03 292.66 349.1 333.18 354.3"/><polygon class="cls-16" points="310.62 329.29 327.58 313.62 312.73 331.4 333.18 354.3 272.91 294.03 310.62 329.29"/></g></g></svg>