<svg xmlns="http://www.w3.org/2000/svg" xmlns:xlink="http://www.w3.org/1999/xlink" viewBox="0 0 432 480"><defs><style>.cls-1{mask:url(#mask);filter:url(#luminosity-noclip-13);}.cls-10,.cls-12,.cls-14,.cls-16,.cls-18,.cls-2,.cls-20,.cls-22,.cls-24,.cls-30,.cls-39,.cls-4,.cls-42,.cls-6,.cls-8{mix-blend-mode:multiply;}.cls-2{fill:url(#radial-gradient);}.cls-3{mask:url(#mask-2);filter:url(#luminosity-noclip-18);}.cls-4{fill:url(#linear-gradient);}.cls-5{mask:url(#mask-3);filter:url(#luminosity-noclip-19);}.cls-6{fill:url(#linear-gradient-2);}.cls-7{mask:url(#mask-4);filter:url(#luminosity-noclip-20);}.cls-8{fill:url(#linear-gradient-3);}.cls-9{mask:url(#mask-5);filter:url(#luminosity-noclip-21);}.cls-10{fill:url(#linear-gradient-4);}.cls-11{mask:url(#mask-6);filter:url(#luminosity-noclip-22);}.cls-12{fill:url(#linear-gradient-5);}.cls-13{mask:url(#mask-7);filter:url(#luminosity-noclip-14);}.cls-14{fill:url(#linear-gradient-6);}.cls-15{mask:url(#mask-8);filter:url(#luminosity-noclip-23);}.cls-16{fill:url(#linear-gradient-7);}.cls-17{mask:url(#mask-9);filter:url(#luminosity-noclip-24);}.cls-18{fill:url(#linear-gradient-8);}.cls-19{mask:url(#mask-10);filter:url(#luminosity-noclip-15);}.cls-20{fill:url(#linear-gradient-9);}.cls-21{mask:url(#mask-11);filter:url(#luminosity-noclip-16);}.cls-22{fill:url(#linear-gradient-10);}.cls-23{mask:url(#mask-12);filter:url(#luminosity-noclip-17);}.cls-24{fill:url(#linear-gradient-11);}.cls-25{isolation:isolate;}.cls-26{fill:url(#linear-gradient-12);}.cls-27{fill:#ffef57;}.cls-28,.cls-31,.cls-32,.cls-35,.cls-64{fill:#fff;}.cls-28,.cls-31,.cls-34,.cls-38,.cls-41,.cls-44,.cls-46,.cls-48,.cls-50,.cls-52,.cls-54,.cls-55,.cls-57,.cls-59,.cls-61,.cls-64{mix-blend-mode:overlay;}.cls-28{opacity:0.35;}.cls-29{fill:url(#linear-gradient-13);}.cls-30{fill:#e57d00;opacity:0.44;}.cls-31{opacity:0.49;}.cls-33{mask:url(#mask-13);}.cls-34{fill:url(#radial-gradient-2);}.cls-35{opacity:0.7;}.cls-36{fill:url(#linear-gradient-14);}.cls-37{mask:url(#mask-14);}.cls-38{opacity:0.5;fill:url(#linear-gradient-15);}.cls-39{opacity:0.24;}.cls-40{mask:url(#mask-15);}.cls-41{opacity:0.25;fill:url(#linear-gradient-16);}.cls-42{opacity:0.1;}.cls-43{mask:url(#mask-16);}.cls-44{fill:url(#linear-gradient-17);}.cls-45{mask:url(#mask-17);}.cls-46{fill:url(#linear-gradient-18);}.cls-47{mask:url(#mask-18);}.cls-48{fill:url(#linear-gradient-19);}.cls-49{mask:url(#mask-19);}.cls-50{fill:url(#linear-gradient-20);}.cls-51{mask:url(#mask-20);}.cls-52{fill:url(#linear-gradient-21);}.cls-53{mask:url(#mask-21);}.cls-54{fill:url(#linear-gradient-22);}.cls-55,.cls-57,.cls-59{opacity:0.53;}.cls-56{mask:url(#mask-22);}.cls-57{fill:url(#linear-gradient-23);}.cls-58{mask:url(#mask-23);}.cls-59{fill:url(#linear-gradient-24);}.cls-60{mask:url(#mask-24);}.cls-61{opacity:0.4;fill:url(#linear-gradient-25);}.cls-62{fill:url(#linear-gradient-26);}.cls-63,.cls-68{fill:#fff92a;}.cls-64{opacity:0.61;}.cls-65{fill:url(#linear-gradient-27);}.cls-66{fill:url(#linear-gradient-28);}.cls-67{fill:url(#linear-gradient-29);}.cls-68{opacity:0.64;}.cls-69{fill:url(#linear-gradient-30);}.cls-70{filter:url(#luminosity-noclip-12);}.cls-71{filter:url(#luminosity-noclip-11);}.cls-72{filter:url(#luminosity-noclip-10);}.cls-73{filter:url(#luminosity-noclip-9);}.cls-74{filter:url(#luminosity-noclip-8);}.cls-75{filter:url(#luminosity-noclip-7);}.cls-76{filter:url(#luminosity-noclip-6);}.cls-77{filter:url(#luminosity-noclip-5);}.cls-78{filter:url(#luminosity-noclip-4);}.cls-79{filter:url(#luminosity-noclip-3);}.cls-80{filter:url(#luminosity-noclip-2);}.cls-81{filter:url(#luminosity-noclip);}</style><filter id="luminosity-noclip" x="116.64" y="-8613" width="81.68" height="32766" filterUnits="userSpaceOnUse" color-interpolation-filters="sRGB"><feFlood flood-color="#fff" result="bg"/><feBlend in="SourceGraphic" in2="bg"/></filter><mask id="mask" x="116.64" y="-8613" width="81.68" height="32766" maskUnits="userSpaceOnUse"><g class="cls-81"/></mask><radialGradient id="radial-gradient" cx="157.48" cy="104.5" r="39.46" gradientUnits="userSpaceOnUse"><stop offset="0.09" stop-color="#fff"/><stop offset="0.17" stop-color="#f6f6f6"/><stop offset="0.3" stop-color="#dedede"/><stop offset="0.45" stop-color="#b6b6b6"/><stop offset="0.64" stop-color="#7f7f7f"/><stop offset="0.85" stop-color="#393939"/><stop offset="1"/></radialGradient><filter id="luminosity-noclip-2" x="68.3" y="-8613" width="151.02" height="32766" filterUnits="userSpaceOnUse" color-interpolation-filters="sRGB"><feFlood flood-color="#fff" result="bg"/><feBlend in="SourceGraphic" in2="bg"/></filter><mask id="mask-2" x="68.3" y="-8613" width="151.02" height="32766" maskUnits="userSpaceOnUse"><g class="cls-80"/></mask><linearGradient id="linear-gradient" x1="68.3" y1="160.91" x2="219.32" y2="160.91" gradientUnits="userSpaceOnUse"><stop offset="0" stop-color="#fff"/><stop offset="1" stop-color="#595959"/></linearGradient><filter id="luminosity-noclip-3" x="219.27" y="-8613" width="151.04" height="32766" filterUnits="userSpaceOnUse" color-interpolation-filters="sRGB"><feFlood flood-color="#fff" result="bg"/><feBlend in="SourceGraphic" in2="bg"/></filter><mask id="mask-3" x="219.27" y="-8613" width="151.04" height="32766" maskUnits="userSpaceOnUse"><g class="cls-79"/></mask><linearGradient id="linear-gradient-2" x1="-247.47" y1="160.91" x2="-96.44" y2="160.91" gradientTransform="matrix(-1, 0, 0, 1, 122.84, 0)" gradientUnits="userSpaceOnUse"><stop offset="0" stop-color="#595959"/><stop offset="1" stop-color="#fff"/></linearGradient><filter id="luminosity-noclip-4" x="221.79" y="-8613" width="140.22" height="32766" filterUnits="userSpaceOnUse" color-interpolation-filters="sRGB"><feFlood flood-color="#fff" result="bg"/><feBlend in="SourceGraphic" in2="bg"/></filter><mask id="mask-4" x="221.79" y="-8613" width="140.22" height="32766" maskUnits="userSpaceOnUse"><g class="cls-78"/></mask><linearGradient id="linear-gradient-3" x1="-239.18" y1="159.89" x2="-98.96" y2="159.89" xlink:href="#linear-gradient-2"/><filter id="luminosity-noclip-5" x="76.44" y="-8613" width="140.23" height="32766" filterUnits="userSpaceOnUse" color-interpolation-filters="sRGB"><feFlood flood-color="#fff" result="bg"/><feBlend in="SourceGraphic" in2="bg"/></filter><mask id="mask-5" x="76.44" y="-8613" width="140.23" height="32766" maskUnits="userSpaceOnUse"><g class="cls-77"/></mask><linearGradient id="linear-gradient-4" x1="106.37" y1="159.89" x2="246.6" y2="159.89" gradientTransform="translate(-29.93)" xlink:href="#linear-gradient"/><filter id="luminosity-noclip-6" x="127.82" y="-8613" width="104.31" height="32766" filterUnits="userSpaceOnUse" color-interpolation-filters="sRGB"><feFlood flood-color="#fff" result="bg"/><feBlend in="SourceGraphic" in2="bg"/></filter><mask id="mask-6" x="127.82" y="-8613" width="104.31" height="32766" maskUnits="userSpaceOnUse"><g class="cls-76"/></mask><linearGradient id="linear-gradient-5" x1="191.39" y1="277.03" x2="183.62" y2="224.32" gradientTransform="matrix(1, 0, 0, 1, 0, 0)" xlink:href="#linear-gradient-2"/><filter id="luminosity-noclip-7" x="125.71" y="-8613" width="187.25" height="32766" filterUnits="userSpaceOnUse" color-interpolation-filters="sRGB"><feFlood flood-color="#fff" result="bg"/><feBlend in="SourceGraphic" in2="bg"/></filter><mask id="mask-7" x="125.71" y="-8613" width="187.25" height="32766" maskUnits="userSpaceOnUse"><g class="cls-75"/></mask><linearGradient id="linear-gradient-6" x1="125.71" y1="240.61" x2="312.96" y2="240.61" xlink:href="#linear-gradient"/><filter id="luminosity-noclip-8" x="198.73" y="-8613" width="68.59" height="32766" filterUnits="userSpaceOnUse" color-interpolation-filters="sRGB"><feFlood flood-color="#fff" result="bg"/><feBlend in="SourceGraphic" in2="bg"/></filter><mask id="mask-8" x="198.73" y="-8613" width="68.59" height="32766" maskUnits="userSpaceOnUse"><g class="cls-74"/></mask><linearGradient id="linear-gradient-7" x1="242.61" y1="325.52" x2="232.04" y2="253.92" gradientTransform="matrix(1, 0, 0, 1, 0, 0)" xlink:href="#linear-gradient-2"/><filter id="luminosity-noclip-9" x="125.66" y="-8613" width="187.24" height="32766" filterUnits="userSpaceOnUse" color-interpolation-filters="sRGB"><feFlood flood-color="#fff" result="bg"/><feBlend in="SourceGraphic" in2="bg"/></filter><mask id="mask-9" x="125.66" y="-8613" width="187.24" height="32766" maskUnits="userSpaceOnUse"><g class="cls-73"/></mask><linearGradient id="linear-gradient-8" x1="229.27" y1="289.17" x2="220.16" y2="227.47" gradientTransform="matrix(1, 0, 0, 1, 0, 0)" xlink:href="#linear-gradient-2"/><filter id="luminosity-noclip-10" x="141.58" y="-8613" width="155.4" height="32766" filterUnits="userSpaceOnUse" color-interpolation-filters="sRGB"><feFlood flood-color="#fff" result="bg"/><feBlend in="SourceGraphic" in2="bg"/></filter><mask id="mask-10" x="141.58" y="-8613" width="155.4" height="32766" maskUnits="userSpaceOnUse"><g class="cls-72"/></mask><linearGradient id="linear-gradient-9" x1="141.58" y1="357.81" x2="296.98" y2="357.81" gradientTransform="matrix(1, 0, 0, 1, 0, 0)" xlink:href="#linear-gradient-2"/><filter id="luminosity-noclip-11" x="281.13" y="-8613" width="84.09" height="32766" filterUnits="userSpaceOnUse" color-interpolation-filters="sRGB"><feFlood flood-color="#fff" result="bg"/><feBlend in="SourceGraphic" in2="bg"/></filter><mask id="mask-11" x="281.13" y="-8613" width="84.09" height="32766" maskUnits="userSpaceOnUse"><g class="cls-71"/></mask><linearGradient id="linear-gradient-10" x1="305.99" y1="351" x2="333.14" y2="225.31" gradientTransform="matrix(1, 0, 0, 1, 0, 0)" xlink:href="#linear-gradient-2"/><filter id="luminosity-noclip-12" x="74.14" y="-8613" width="84.09" height="32766" filterUnits="userSpaceOnUse" color-interpolation-filters="sRGB"><feFlood flood-color="#fff" result="bg"/><feBlend in="SourceGraphic" in2="bg"/></filter><mask id="mask-12" x="74.14" y="-8613" width="84.09" height="32766" maskUnits="userSpaceOnUse"><g class="cls-70"/></mask><linearGradient id="linear-gradient-11" x1="164.73" y1="391.03" x2="79.26" y2="190.93" xlink:href="#linear-gradient"/><linearGradient id="linear-gradient-12" x1="1" y1="230.81" x2="432.5" y2="230.81" gradientUnits="userSpaceOnUse"><stop offset="0" stop-color="#fde403"/><stop offset="1" stop-color="#e57d00"/></linearGradient><linearGradient id="linear-gradient-13" x1="263.01" y1="427.85" x2="209.83" y2="162.73" xlink:href="#linear-gradient-12"/><filter id="luminosity-noclip-13" x="116.64" y="66.47" width="81.68" height="76.06" filterUnits="userSpaceOnUse" color-interpolation-filters="sRGB"><feFlood flood-color="#fff" result="bg"/><feBlend in="SourceGraphic" in2="bg"/></filter><mask id="mask-13" x="116.64" y="66.47" width="81.68" height="76.06" maskUnits="userSpaceOnUse"><g class="cls-1"><path class="cls-2" d="M157.49,66.47c-22.56,0-40.85,17-40.85,38.05s18.29,38,40.85,38,40.83-17,40.83-38S180,66.47,157.49,66.47Z"/></g></mask><radialGradient id="radial-gradient-2" cx="157.48" cy="104.5" r="39.46" gradientUnits="userSpaceOnUse"><stop offset="0.09" stop-color="#fff"/><stop offset="1" stop-color="#fff"/></radialGradient><linearGradient id="linear-gradient-14" x1="68.33" y1="243.13" x2="370.3" y2="243.13" gradientUnits="userSpaceOnUse"><stop offset="0.02" stop-color="#a6ffff"/><stop offset="1" stop-color="#7b66cc"/></linearGradient><filter id="luminosity-noclip-14" x="125.71" y="152.82" width="187.25" height="175.58" filterUnits="userSpaceOnUse" color-interpolation-filters="sRGB"><feFlood flood-color="#fff" result="bg"/><feBlend in="SourceGraphic" in2="bg"/></filter><mask id="mask-14" x="125.71" y="152.82" width="187.25" height="175.58" maskUnits="userSpaceOnUse"><g class="cls-13"><polygon class="cls-14" points="219.36 152.82 219.33 152.84 219.32 152.82 219.3 152.87 125.71 217.8 162.59 328.4 192.97 328.4 245.7 328.4 276.08 328.4 312.96 217.8 219.36 152.82"/></g></mask><linearGradient id="linear-gradient-15" x1="378.61" y1="240.61" x2="379.96" y2="240.61" gradientUnits="userSpaceOnUse"><stop offset="0" stop-color="#fff"/><stop offset="1" stop-color="#fff"/></linearGradient><filter id="luminosity-noclip-15" x="141.58" y="334.97" width="155.4" height="45.67" filterUnits="userSpaceOnUse" color-interpolation-filters="sRGB"><feFlood flood-color="#fff" result="bg"/><feBlend in="SourceGraphic" in2="bg"/></filter><mask id="mask-15" x="141.58" y="334.97" width="155.4" height="45.67" maskUnits="userSpaceOnUse"><g class="cls-19"><polygon class="cls-20" points="171.06 334.98 141.58 380.64 183.18 380.64 255.37 380.64 296.98 380.64 267.45 334.98 171.06 334.98"/></g></mask><linearGradient id="linear-gradient-16" x1="378.61" y1="357.81" x2="379.95" y2="357.81" xlink:href="#linear-gradient-15"/><filter id="luminosity-noclip-16" x="281.13" y="215.86" width="84.09" height="159.28" filterUnits="userSpaceOnUse" color-interpolation-filters="sRGB"><feFlood flood-color="#fff" result="bg"/><feBlend in="SourceGraphic" in2="bg"/></filter><mask id="mask-16" x="281.13" y="215.86" width="84.09" height="159.28" maskUnits="userSpaceOnUse"><g class="cls-21"><polygon class="cls-22" points="314.04 228.35 365.21 215.86 312.13 375.14 281.13 327.11 314.04 228.35"/></g></mask><linearGradient id="linear-gradient-17" x1="378.61" y1="295.5" x2="379.96" y2="295.5" xlink:href="#linear-gradient-15"/><filter id="luminosity-noclip-17" x="74.14" y="215.11" width="84.09" height="159.27" filterUnits="userSpaceOnUse" color-interpolation-filters="sRGB"><feFlood flood-color="#fff" result="bg"/><feBlend in="SourceGraphic" in2="bg"/></filter><mask id="mask-17" x="74.14" y="215.11" width="84.09" height="159.27" maskUnits="userSpaceOnUse"><g class="cls-23"><polygon class="cls-24" points="125.32 227.61 74.14 215.11 127.23 374.39 158.23 326.36 125.32 227.61"/></g></mask><linearGradient id="linear-gradient-18" x1="378.6" y1="294.75" x2="379.94" y2="294.75" xlink:href="#linear-gradient-15"/><filter id="luminosity-noclip-18" x="68.3" y="101.53" width="151.02" height="118.76" filterUnits="userSpaceOnUse" color-interpolation-filters="sRGB"><feFlood flood-color="#fff" result="bg"/><feBlend in="SourceGraphic" in2="bg"/></filter><mask id="mask-18" x="68.3" y="101.53" width="151.02" height="118.76" maskUnits="userSpaceOnUse"><g class="cls-3"><polygon class="cls-4" points="219.32 101.53 219.27 101.56 219.24 101.53 219.23 101.59 68.3 206.31 125.66 220.29 219.3 155.32 219.32 101.53"/></g></mask><linearGradient id="linear-gradient-19" x1="378.61" y1="160.91" x2="379.95" y2="160.91" xlink:href="#linear-gradient-15"/><filter id="luminosity-noclip-19" x="219.27" y="101.53" width="151.04" height="118.76" filterUnits="userSpaceOnUse" color-interpolation-filters="sRGB"><feFlood flood-color="#fff" result="bg"/><feBlend in="SourceGraphic" in2="bg"/></filter><mask id="mask-19" x="219.27" y="101.53" width="151.04" height="118.76" maskUnits="userSpaceOnUse"><g class="cls-5"><polygon class="cls-6" points="219.27 101.53 219.32 101.56 219.36 101.53 219.37 101.59 370.31 206.31 312.95 220.29 219.3 155.32 219.27 101.53"/></g></mask><linearGradient id="linear-gradient-20" x1="7082.64" y1="160.91" x2="7083.99" y2="160.91" gradientTransform="matrix(-1, 0, 0, 1, 122.84, 0)" xlink:href="#linear-gradient-15"/><filter id="luminosity-noclip-20" x="221.79" y="105.77" width="140.22" height="108.23" filterUnits="userSpaceOnUse" color-interpolation-filters="sRGB"><feFlood flood-color="#fff" result="bg"/><feBlend in="SourceGraphic" in2="bg"/></filter><mask id="mask-20" x="221.79" y="105.77" width="140.22" height="108.23" maskUnits="userSpaceOnUse"><g class="cls-7"><polygon class="cls-8" points="221.79 105.77 221.84 105.8 221.86 105.77 221.88 105.83 362.01 203.06 311.39 214.01 224.44 153.69 221.79 105.77"/></g></mask><linearGradient id="linear-gradient-21" x1="7082.64" y1="159.89" x2="7083.98" y2="159.89" gradientTransform="matrix(-1, 0, 0, 1, 122.84, 0)" xlink:href="#linear-gradient-15"/><filter id="luminosity-noclip-21" x="76.44" y="105.77" width="140.23" height="108.23" filterUnits="userSpaceOnUse" color-interpolation-filters="sRGB"><feFlood flood-color="#fff" result="bg"/><feBlend in="SourceGraphic" in2="bg"/></filter><mask id="mask-21" x="76.44" y="105.77" width="140.23" height="108.23" maskUnits="userSpaceOnUse"><g class="cls-9"><polygon class="cls-10" points="216.67 105.77 216.61 105.8 216.6 105.77 216.57 105.83 76.44 203.06 127.08 214.01 214.01 153.69 216.67 105.77"/></g></mask><linearGradient id="linear-gradient-22" x1="328.13" y1="159.89" x2="329.47" y2="159.89" gradientTransform="translate(-29.93)" xlink:href="#linear-gradient-15"/><filter id="luminosity-noclip-22" x="127.82" y="155.32" width="104.31" height="134.67" filterUnits="userSpaceOnUse" color-interpolation-filters="sRGB"><feFlood flood-color="#fff" result="bg"/><feBlend in="SourceGraphic" in2="bg"/></filter><mask id="mask-22" x="127.82" y="155.32" width="104.31" height="134.67" maskUnits="userSpaceOnUse"><g class="cls-11"><polygon class="cls-12" points="127.82 233.44 146.66 289.99 232.12 165.77 217.08 155.32 217.05 155.34 217.03 155.32 217.02 155.36 149.9 201.93 127.82 233.44"/></g></mask><linearGradient id="linear-gradient-23" x1="378.61" y1="222.66" x2="379.95" y2="222.66" xlink:href="#linear-gradient-15"/><filter id="luminosity-noclip-23" x="198.73" y="166.69" width="68.59" height="164.23" filterUnits="userSpaceOnUse" color-interpolation-filters="sRGB"><feFlood flood-color="#fff" result="bg"/><feBlend in="SourceGraphic" in2="bg"/></filter><mask id="mask-23" x="198.73" y="166.69" width="68.59" height="164.23" maskUnits="userSpaceOnUse"><g class="cls-15"><polygon class="cls-16" points="243.41 330.91 264.65 330.91 267.32 190.21 233.44 166.69 198.73 330.91 243.41 330.91"/></g></mask><linearGradient id="linear-gradient-24" x1="378.61" y1="248.8" x2="379.95" y2="248.8" xlink:href="#linear-gradient-15"/><filter id="luminosity-noclip-24" x="125.66" y="153" width="187.24" height="154.61" filterUnits="userSpaceOnUse" color-interpolation-filters="sRGB"><feFlood flood-color="#fff" result="bg"/><feBlend in="SourceGraphic" in2="bg"/></filter><mask id="mask-24" x="125.66" y="153" width="187.24" height="154.61" maskUnits="userSpaceOnUse"><g class="cls-17"><path class="cls-18" d="M312.9,220.29s-70.89.45-107.6,28.5-50.54,58.82-50.54,58.82l-29.1-85,91-69.65Z"/></g></mask><linearGradient id="linear-gradient-25" x1="378.61" y1="230.3" x2="379.96" y2="230.3" xlink:href="#linear-gradient-15"/><linearGradient id="linear-gradient-26" x1="241.24" y1="148.81" x2="213.58" y2="59.75" gradientUnits="userSpaceOnUse"><stop offset="0" stop-color="#e57d00"/><stop offset="1" stop-color="#fde403"/></linearGradient><linearGradient id="linear-gradient-27" x1="-578.99" y1="1523.98" x2="-621.03" y2="1433.27" gradientTransform="translate(1427.88 -572.75) rotate(32.44)" xlink:href="#linear-gradient-26"/><linearGradient id="linear-gradient-28" x1="1963.64" y1="-91.97" x2="1921.6" y2="-182.69" gradientTransform="matrix(-0.84, 0.54, 0.54, 0.84, 2014.87, -572.75)" xlink:href="#linear-gradient-26"/><linearGradient id="linear-gradient-29" x1="-1865.97" y1="646.91" x2="-1908.01" y2="556.2" gradientTransform="translate(206.97 2183.36) rotate(104.28)" xlink:href="#linear-gradient-26"/><linearGradient id="linear-gradient-30" x1="-2630.31" y1="3369.95" x2="-2672.34" y2="3279.24" gradientTransform="matrix(0.28, 0.96, 0.96, -0.28, -2119.11, 3671.58)" xlink:href="#linear-gradient-26"/></defs><g class="cls-25"><g id="Layer_1" data-name="Layer 1"><path class="cls-26" d="M432.5,178.21,216.81,28.53h0l0,0L1,178.21,86,433.12H277.57l70-.08Z"/><polygon class="cls-27" points="432.5 178.21 216.81 28.53 216.77 28.51 1 178.21 3.75 186.44 216.77 38.64 216.81 38.66 423.26 181.93 341.89 426.02 271.91 426.1 150.4 426.1 83.68 426.1 86.03 433.12 86.05 433.12 156.06 433.12 277.56 433.12 347.55 433.04 429.75 186.44 429.75 186.44 432.5 178.21"/><path class="cls-28" d="M45.21,312.26a202,202,0,0,0,116.37,36.66c112.11,0,203-90.88,203-203,0-5-.19-10-.54-14.87L216.3,28.53l0,0L.5,178.21Z"/><path class="cls-28" d="M298.92,85.51l-82.11-57,0,0L1,178.21l20.07,60.15a293.23,293.23,0,0,0,56.8,5.5C197.08,243.86,294.25,173.55,298.92,85.51Z"/><polygon class="cls-29" points="216.54 86.92 216.51 86.9 59.28 195.98 121.24 381.73 121.26 381.73 172.27 381.73 260.81 381.73 311.81 381.67 373.71 195.98 216.54 86.92"/><path class="cls-30" d="M110.79,342.72A152.65,152.65,0,0,1,363.67,227.59L374.21,196,217,86.92l0,0L59.78,196,111,349.38C110.85,347.17,110.79,345,110.79,342.72Z"/><path class="cls-31" d="M219.79,83l-2.75,4,2.73-4L217,81l-163,113.07,63.1,189.18,1.12,3.31h143l54.48-.07,64.15-192.42Zm89,293.89-47.51.06H125.22l-59.7-179L217,92.78,368.47,197.89Z"/><path class="cls-32" d="M186.86,78.29S23.36,177.84,26.94,192.17s99.26-56.12,125-72.49S199.05,82.11,186.86,78.29Z"/><g class="cls-33"><path class="cls-34" d="M157.49,66.47c-22.56,0-40.85,17-40.85,38.05s18.29,38,40.85,38,40.83-17,40.83-38S180,66.47,157.49,66.47Z"/></g><path class="cls-35" d="M120.19,154.56c11-12.3,43.18-50,43.18-50S190.29,54,190.94,52.58c.18-.41-34.4,47.5-34.4,47.5Z"/><path class="cls-32" d="M166.37,95.47c-9.93-7.77-8.13-29.6-8.21-35.78v5.92c0-.94-.07-2-.07-2.19V59.69a70.24,70.24,0,0,1-.55,7.82S154.62,89.43,149.37,94c-11.83,10.38-41.6,8.38-30.18,8.64,38.55.83,38.55,38.46,38.9,50.81v-6.22c0,.45.07.82.07,1v5.18c.82-29.22.72-47.71,34.36-50.18C203.66,102.37,178,104.52,166.37,95.47Z"/><path class="cls-36" d="M370.3,206.31,219.36,101.57h0l0,0-151,104.76,59.5,178.4H261.88l49-.06Z"/><g class="cls-37"><polygon class="cls-38" points="219.36 152.82 219.33 152.84 219.32 152.82 219.3 152.87 125.71 217.8 162.59 328.4 192.97 328.4 245.7 328.4 276.08 328.4 312.96 217.8 219.36 152.82"/></g><polygon class="cls-39" points="162.53 330.91 127.82 384.71 176.82 384.71 261.85 384.71 310.86 384.71 276.07 330.91 162.53 330.91"/><g class="cls-40"><polygon class="cls-41" points="171.06 334.98 141.58 380.64 183.18 380.64 255.37 380.64 296.98 380.64 267.45 334.98 171.06 334.98"/></g><polygon class="cls-42" points="125.66 220.29 68.34 206.31 127.8 384.71 162.53 330.91 125.66 220.29"/><g class="cls-43"><polygon class="cls-44" points="314.04 228.35 365.21 215.86 312.13 375.14 281.13 327.11 314.04 228.35"/></g><g class="cls-45"><polygon class="cls-46" points="125.32 227.61 74.14 215.11 127.23 374.39 158.23 326.36 125.32 227.61"/></g><g class="cls-47"><polygon class="cls-48" points="219.32 101.53 219.27 101.56 219.24 101.53 219.23 101.59 68.3 206.31 125.66 220.29 219.3 155.32 219.32 101.53"/></g><g class="cls-49"><polygon class="cls-50" points="219.27 101.53 219.32 101.56 219.36 101.53 219.37 101.59 370.31 206.31 312.95 220.29 219.3 155.32 219.27 101.53"/></g><g class="cls-51"><polygon class="cls-52" points="221.79 105.77 221.84 105.8 221.86 105.77 221.88 105.83 362.01 203.06 311.39 214.01 224.44 153.69 221.79 105.77"/></g><g class="cls-53"><polygon class="cls-54" points="216.67 105.77 216.61 105.8 216.6 105.77 216.57 105.83 76.44 203.06 127.08 214.01 214.01 153.69 216.67 105.77"/></g><polygon class="cls-32" points="68.3 206.31 125.66 217.2 216.67 153 219.37 101.59 221.79 153.67 313.73 217.86 370.31 206.31 312.9 220.29 220.39 158.2 128.39 222.22 150.73 295.49 124.37 223.38 68.3 206.31"/><g class="cls-55"><g class="cls-56"><polygon class="cls-57" points="127.82 233.44 146.66 289.99 232.12 165.77 217.08 155.32 217.05 155.34 217.03 155.32 217.02 155.36 149.9 201.93 127.82 233.44"/></g><g class="cls-58"><polygon class="cls-59" points="243.41 330.91 264.65 330.91 267.32 190.21 233.44 166.69 198.73 330.91 243.41 330.91"/></g></g><g class="cls-60"><path class="cls-61" d="M312.9,220.29s-70.89.45-107.6,28.5-50.54,58.82-50.54,58.82l-29.1-85,91-69.65Z"/></g><polygon class="cls-62" points="216.88 53.19 216.88 132.11 240.01 83.12 216.88 53.19"/><polygon class="cls-63" points="216.88 53.19 216.88 132.11 193.75 83.12 216.88 53.19"/><polygon class="cls-64" points="216.88 53.19 193.9 82.94 239.87 82.94 216.88 53.19"/><polygon class="cls-32" points="214.68 86.15 193.9 82.94 216.88 53.19 216.88 132.11 214.68 86.15"/><polygon class="cls-63" points="103.8 410.57 146.13 343.96 100.33 372.9 103.8 410.57"/><polygon class="cls-65" points="103.8 410.57 146.13 343.96 139.37 397.71 103.8 410.57"/><polygon class="cls-32" points="145.72 344.6 118.68 382.22 100.35 373.12 119.76 385.46 145.72 344.6"/><polygon class="cls-63" points="326.17 410.57 283.85 343.96 329.64 372.9 326.17 410.57"/><polygon class="cls-66" points="326.17 410.57 283.85 343.96 290.61 397.71 326.17 410.57"/><polygon class="cls-32" points="284.25 344.6 311.29 382.22 329.62 373.12 310.22 385.46 284.25 344.6"/><polygon class="cls-63" points="27.34 200.85 103.81 220.32 62.05 185.81 27.34 200.85"/><polygon class="cls-67" points="27.34 200.85 103.81 220.32 50.64 230.65 27.34 200.85"/><polygon class="cls-68" points="27.34 200.85 50.49 230.47 61.83 185.92 27.34 200.85"/><polygon class="cls-32" points="57.91 206.98 62.36 186.08 55.22 206.31 27.34 200.85 103.81 220.32 57.91 206.98"/><polygon class="cls-63" points="405.66 197.76 329.82 219.56 370.5 183.8 405.66 197.76"/><polygon class="cls-69" points="405.66 197.76 329.82 219.56 383.28 228.25 405.66 197.76"/><polygon class="cls-32" points="375.29 204.84 370.19 184.07 377.95 204.06 405.66 197.76 329.82 219.56 375.29 204.84"/><path class="cls-35" d="M100.44,189.48c6.31,13,29.72,49.43,29.72,49.43s35.27,41.17,36.6,42.54-29.95-48.09-29.95-48.09Z"/><path class="cls-35" d="M100.69,278.94c9.49-10.69,37.47-43.46,37.47-43.46s23.33-43.8,23.9-45c.16-.38-29.83,41.22-29.83,41.22Z"/><path class="cls-32" d="M140.76,227.64c-8.64-6.73-7.06-25.69-7.14-31v5.12c0-.82-.06-1.7-.06-1.89v-3.23a67.76,67.76,0,0,1-.46,6.78s-2.56,19-7.1,23c-10.26,9-36.1,7.28-26.18,7.49,33.44.7,33.44,33.39,33.74,44.09v-5.41c0,.4.05.72.06.93v4.48c.71-25.37.62-41.41,29.82-43.56C173.08,233.62,150.83,235.48,140.76,227.64Z"/></g></g></svg>